HIERARCHY
ROOT Hips
{
	OFFSET	0.000000	0.000000	0.000000
	CHANNELS 6 Xposition Yposition Zposition Zrotation Xrotation Yrotation
	JOINT LeftUpLeg
	{
		OFFSET	9.284511	-0.414713	0.902896
		CHANNELS 3 Zrotation Xrotation Yrotation
		JOINT LeftLeg
		{
			OFFSET	-0.320137	-37.843714	-1.267389
			CHANNELS 3 Zrotation Xrotation Yrotation
			JOINT LeftFoot
			{
				OFFSET	0.000000	-34.515802	-0.960918
				CHANNELS 3 Zrotation Xrotation Yrotation
				JOINT LeftFootHeel
				{
					OFFSET	-1.027618	-9.850933	-2.700982
					CHANNELS 3 Zrotation Xrotation Yrotation
					End Site
					{
						OFFSET	0.284778	-0.000010	13.488772
					}
				}
			}
		}
	}
	JOINT RightUpLeg
	{
		OFFSET	-9.284511	-0.414713	0.902896
		CHANNELS 3 Zrotation Xrotation Yrotation
		JOINT RightLeg
		{
			OFFSET	0.320137	-37.843714	-1.267389
			CHANNELS 3 Zrotation Xrotation Yrotation
			JOINT RightFoot
			{
				OFFSET	0.000000	-34.515802	-0.960918
				CHANNELS 3 Zrotation Xrotation Yrotation
				JOINT RightFootHeel
				{
					OFFSET	1.027618	-9.850933	-2.700982
					CHANNELS 3 Zrotation Xrotation Yrotation
					End Site
					{
						OFFSET	-0.284778	-0.000010	13.488772
					}
				}
			}
		}
	}
	JOINT Spine
	{
		OFFSET	0.000000	12.836601	0.326022
		CHANNELS 3 Zrotation Xrotation Yrotation
		JOINT Spine1
		{
			OFFSET	0.000000	9.120759	-0.326022
			CHANNELS 3 Zrotation Xrotation Yrotation
			JOINT LeftShoulder
			{
				OFFSET	4.177995	24.944703	-0.000008
				CHANNELS 3 Zrotation Xrotation Yrotation
				JOINT LeftArm
				{
					OFFSET	10.878590	0.318082	0.310213
					CHANNELS 3 Zrotation Xrotation Yrotation
					JOINT LeftForeArm
					{
						OFFSET	3.185947	-26.979373	-2.007784
						CHANNELS 3 Zrotation Xrotation Yrotation
						JOINT LeftHand
						{
							OFFSET	3.207944	-21.608107	4.261180
							CHANNELS 3 Zrotation Xrotation Yrotation
							End Site
							{
								OFFSET	-0.001754	-9.852228	0.889399
							}
						}
					}
				}
			}
			JOINT RightShoulder
			{
				OFFSET	-4.177995	24.944703	-0.000008
				CHANNELS 3 Zrotation Xrotation Yrotation
				JOINT RightArm
				{
					OFFSET	-10.878590	0.318082	0.310213
					CHANNELS 3 Zrotation Xrotation Yrotation
					JOINT RightForeArm
					{
						OFFSET	-3.185947	-26.979373	-2.007784
						CHANNELS 3 Zrotation Xrotation Yrotation
						JOINT RightHand
						{
							OFFSET	-3.207944	-21.608107	4.261180
							CHANNELS 3 Zrotation Xrotation Yrotation
							End Site
							{
								OFFSET	0.001755	-9.852228	0.889399
							}
						}
					}
				}
			}
			JOINT Neck
			{
				OFFSET	0.000000	29.389071	-1.304087
				CHANNELS 3 Zrotation Xrotation Yrotation
				JOINT Head
				{
					OFFSET	0.000000	7.093915	0.841385
					CHANNELS 3 Zrotation Xrotation Yrotation
					End Site
					{
						OFFSET	0.000000	12.498780	-1.167409
					}
				}
			}
		}
	}
}
MOTION
Frames:    11
Frame Time: 0.016667
-8.383696	85.895201	-5.559357	4.751554	1.588496	-21.346600	2.624967	-1.310598	-5.336704	3.807834	4.491190	-5.074594	-5.803306	-0.210252	3.444614	0.	0.	0.	-4.189569	-10.210217	-0.821680	-3.136852	12.101444	23.502359	4.675598	-2.692428	19.466667	0.	0.	0.	-0.000000	-0.000004	0.000000	0.445661	25.775074	2.803320	0.019437	-2.724332	-9.816401	4.571148	9.889995	-26.187820	-13.790987	4.911622	-34.187763	3.536616	-14.532309	-2.971134	1.534367	-2.258787	-2.907373	0.616764	14.429114	19.951427	21.243567	2.423600	49.680000	-10.861418	-34.095352	2.004165	-2.056673	16.087250	4.134041	-7.842453	-4.975730	34.827950	
-8.132277	85.845834	-5.472806	4.587008	1.437786	-21.472748	2.420470	-1.048326	-5.470563	3.796650	4.431479	-5.280735	-5.339218	-0.553194	3.995423	0.	0.	0.	-4.119341	-10.316294	-0.788189	-3.473325	12.633367	23.788517	4.835079	-2.920757	19.388041	0.	0.	0.	-0.000001	-0.000000	-0.000001	0.459440	25.755342	2.890913	0.105345	-2.621946	-9.783984	4.520830	9.754322	-26.200064	-13.811234	4.928570	-34.163372	3.497345	-14.484635	-3.112402	1.578229	-2.208285	-3.027226	0.510222	14.362829	19.964960	21.246384	2.402289	49.736938	-10.853129	-34.174393	2.064134	-1.215339	18.228607	3.654892	-8.079635	-2.630293	32.454891	
-7.879617	85.794258	-5.330117	4.403025	1.263604	-21.598183	2.241596	-0.824121	-5.629242	3.774481	4.469198	-5.472785	-4.919783	-0.877117	4.517038	0.	0.	0.	-4.060397	-10.368910	-0.874009	-3.826350	13.186271	24.154259	4.959260	-3.161722	19.344656	0.	0.	0.	0.000000	-0.000001	0.000003	0.469746	25.710245	2.952190	0.221659	-2.513688	-9.787000	4.457824	9.628169	-26.295786	-13.910771	5.032072	-34.020565	3.548552	-14.479868	-3.294744	1.613209	-2.179528	-3.108936	0.478734	14.424979	19.849825	21.196301	2.368249	49.831505	-10.839958	-34.243420	2.030870	-0.473058	19.786549	3.042687	-7.901996	0.645639	30.164434	
-7.690217	85.766237	-5.304387	4.222483	1.071549	-21.727785	2.076649	-0.543384	-5.750808	3.747441	4.449153	-5.470025	-4.554278	-1.100563	4.809331	0.	0.	0.	-4.005532	-10.402913	-0.929209	-4.001155	13.584216	24.397778	4.979858	-3.159164	19.324142	0.	0.	0.	-0.000001	-0.000001	-0.000000	0.473914	25.609264	2.971956	0.346952	-2.353256	-9.765077	4.405627	9.466814	-26.355829	-13.928567	5.083105	-34.091354	3.527377	-14.450235	-3.438313	1.639559	-2.119787	-3.165482	0.508847	14.496427	19.746468	21.159122	2.510442	49.939587	-11.033048	-34.366207	1.861908	-0.074915	21.472116	2.363043	-7.258041	3.608348	27.903868	
-7.444007	85.731510	-5.173325	4.077767	0.839851	-21.871105	1.896352	-0.167374	-5.761474	3.706873	4.333197	-5.269341	-4.232392	-1.223000	4.826996	0.	0.	0.	-3.984174	-10.411458	-0.873852	-4.340679	14.090369	24.499233	5.139140	-3.281682	19.389565	0.	0.	0.	0.000000	-0.000002	-0.000000	0.412909	25.510859	2.988052	0.433112	-2.158328	-9.671215	4.474762	9.278508	-26.414612	-13.961668	5.089948	-34.344212	3.563303	-14.462831	-3.603337	1.697941	-2.019505	-3.243690	0.457848	14.486806	19.765392	21.155378	2.481115	49.902100	-11.025177	-34.413391	1.856382	0.401454	23.815533	1.487165	-7.155865	3.503967	27.041611	
-7.170139	85.707742	-5.048463	3.936402	0.572115	-22.018425	1.752890	0.327662	-5.643577	3.647429	4.114127	-5.069573	-3.987206	-1.251081	4.699459	0.	0.	0.	-4.012874	-10.376002	-0.761736	-4.615132	14.540590	24.597303	5.254711	-3.318807	19.391516	0.	0.	0.	-0.000001	-0.000001	0.000000	0.290127	25.492977	3.053753	0.500497	-2.008165	-9.622427	4.556892	9.108979	-26.405907	-13.939124	5.048915	-34.717289	3.457669	-14.422592	-3.422052	1.818951	-1.963298	-3.411499	0.281729	14.459416	19.807125	21.229673	2.450021	49.929768	-11.011406	-34.433620	1.889565	1.277420	26.296759	0.556725	-6.318841	4.864567	24.374586	
-6.895915	85.692917	-4.927409	3.801015	0.301209	-22.145170	1.616468	0.819235	-5.464552	3.580263	3.892492	-5.038268	-3.747756	-1.192949	4.642995	0.	0.	0.	-4.051731	-10.326233	-0.689458	-4.876755	14.955338	24.804724	5.353467	-3.294051	19.250957	0.	0.	0.	0.000000	-0.000000	0.000002	0.154853	25.471512	3.119256	0.527788	-1.886653	-9.614925	4.616404	9.030368	-26.426203	-13.869279	4.981002	-35.015488	3.519733	-14.467321	-3.455190	1.948601	-1.772021	-3.471074	0.153578	14.326800	19.625879	21.271347	2.461686	50.072876	-11.004704	-34.451241	1.947569	1.562309	28.020634	-0.395862	-4.638531	6.996228	21.879221	
-6.634431	85.687123	-4.832017	3.668002	0.062069	-22.225956	1.452751	1.176995	-5.326838	3.536223	3.806669	-5.134871	-3.504993	-1.183241	4.706161	0.	0.	0.	-4.052467	-10.295880	-0.682624	-5.175415	15.317350	25.054619	5.458422	-3.175390	19.066936	0.	0.	0.	-0.000000	-0.000001	0.000004	0.048529	25.377754	3.108292	0.545573	-1.754271	-9.596039	4.609686	9.054403	-26.468966	-13.777239	4.921091	-35.141064	3.551377	-14.508334	-3.485976	2.093363	-1.680600	-3.664569	-0.001120	14.356692	19.548889	21.253355	2.516470	50.314129	-10.990479	-34.449089	2.005471	1.618619	29.063599	-1.465506	-2.972032	10.025829	19.585039	
-6.370870	85.697016	-4.727165	3.573083	-0.141677	-22.247879	1.368793	1.409700	-5.291296	3.385134	3.813247	-5.202592	-3.273882	-1.177629	4.782257	0.	0.	0.	-4.088434	-10.275519	-0.789989	-5.486327	15.615771	25.358690	5.570377	-2.970832	18.866905	0.	0.	0.	0.000000	-0.000002	-0.000000	-0.047626	25.264681	2.995003	0.572560	-1.648202	-9.540317	4.594778	9.212348	-26.433678	-13.708593	4.786084	-35.241955	3.562556	-14.496153	-3.641650	2.211394	-1.611627	-3.804967	-0.161980	14.378122	19.496597	21.271551	2.576151	50.539028	-10.937384	-34.419178	2.084766	1.639605	29.694210	-1.779895	-1.435469	13.506024	16.735609	
-6.101092	85.703789	-4.600532	3.475518	-0.320836	-22.248161	1.213136	1.560151	-5.297943	3.439987	3.886625	-5.223531	-3.155978	-1.173348	4.813893	0.	0.	0.	-4.112462	-10.278092	-0.904732	-5.825027	15.943161	25.586363	5.699183	-2.757819	18.728580	0.	0.	0.	-0.000000	-0.000002	-0.000004	-0.067676	25.326170	2.934927	0.570427	-1.701208	-9.555206	4.506783	9.281882	-26.475601	-13.670654	4.753813	-35.180866	3.552765	-14.439809	-3.865566	2.244725	-1.675028	-4.018133	-0.350482	14.337563	19.535711	21.344461	2.605778	50.679844	-10.857465	-34.402573	2.134224	1.845770	30.758472	-2.536703	0.099192	16.139469	14.292777	
-5.808196	85.701512	-4.464621	3.415605	-0.407257	-22.257090	1.037850	1.596430	-5.308687	3.387839	3.986978	-5.252551	-2.913231	-1.169252	4.877523	0.	0.	0.	-4.161833	-10.419220	-0.971589	-6.148327	16.345932	25.698769	5.848557	-2.576244	18.673986	0.	0.	0.	-0.000000	-0.000002	0.000000	-0.171134	25.107161	2.830788	0.676362	-1.494977	-9.485084	4.439007	9.295228	-26.510223	-13.685350	4.752166	-35.110004	3.565614	-14.363328	-4.007276	2.406651	-1.520611	-4.134026	-0.591265	14.308367	19.617146	21.417921	2.590431	50.777859	-10.782556	-34.404282	2.100261	2.476744	32.442959	-3.045789	1.806402	17.876270	11.422809	
